<svg width="133" height="40" viewBox="0 0 133 40" fill="none" xmlns="http://www.w3.org/2000/svg">
<path d="M25.0925 1.05386L21.1595 0L17.8451 12.3696L14.8528 1.20224L10.9197 2.2561L14.1527 14.3216L6.10008 6.26898L3.22089 9.14817L12.0536 17.981L1.05386 15.0336L0 18.9666L12.0186 22.187C11.881 21.5935 11.8082 20.9751 11.8082 20.3397C11.8082 15.8421 15.4542 12.1961 19.9518 12.1961C24.4494 12.1961 28.0954 15.8421 28.0954 20.3397C28.0954 20.971 28.0235 21.5856 27.8876 22.1756L38.8103 25.1023L39.8641 21.1693L27.7977 17.9361L38.7982 14.9885L37.7443 11.0555L25.6784 14.2885L33.731 6.23592L30.8518 3.35673L22.1416 12.067L25.0925 1.05386Z" fill="#9516F9"/>
<path d="M27.8769 22.2214C27.5397 23.647 26.8278 24.9277 25.851 25.9538L33.764 33.8669L36.6432 30.9877L27.8769 22.2214Z" fill="#9516F9"/>
<path d="M25.771 26.0366C24.7824 27.0463 23.5331 27.7998 22.1321 28.1881L25.0115 38.9341L28.9445 37.8802L25.771 26.0366Z" fill="#9516F9"/>
<path d="M21.9852 28.2274C21.3352 28.3945 20.6539 28.4833 19.9518 28.4833C19.1996 28.4833 18.4712 28.3813 17.7797 28.1904L14.8977 38.9462L18.8307 40L21.9852 28.2274Z" fill="#9516F9"/>
<path d="M17.6407 28.1507C16.2611 27.7431 15.034 26.98 14.0656 25.9674L6.13314 33.8999L9.01233 36.7791L17.6407 28.1507Z" fill="#9516F9"/>
<path d="M13.9994 25.8973C13.0476 24.8783 12.3543 23.6147 12.0243 22.2111L1.06596 25.1474L2.11981 29.0804L13.9994 25.8973Z" fill="#9516F9"/>
<path d="M61.572 28L60.582 25.206H54.708L53.718 28H50.176L55.632 13.04H59.856L65.334 28H61.572ZM57.194 18.188L55.676 22.5H59.614L58.096 18.188L57.656 16.494L57.194 18.188Z" fill="#3C2B1F"/>
<path d="M66.6342 28V16.164H70.0002V17.814C70.7482 16.406 71.8922 15.79 73.1022 15.79C73.5862 15.79 74.0262 15.922 74.2682 16.164V19.002C73.8722 18.914 73.4542 18.87 72.9262 18.87C70.9022 18.87 70.0002 20.014 70.0002 21.884V28H66.6342Z" fill="#3C2B1F"/>
<path d="M76.0547 24.15V18.716H74.6027V16.164H76.0547V13.414H79.4207V16.164H81.8407V18.716H79.4207V23.732C79.4207 24.876 79.7287 25.514 81.1807 25.514H81.8187V28.044C81.4447 28.22 80.6967 28.352 79.7947 28.352C77.2647 28.352 76.0547 26.9 76.0547 24.15Z" fill="#3C2B1F"/>
<path d="M83.5471 28V13.04H94.2831V15.834H87.0671V18.98H93.4251V21.708H87.0671V25.206H94.2831V28H83.5471Z" fill="#3C2B1F"/>
<path d="M106.821 20.432H103.455C103.235 19.046 102.443 18.518 101.475 18.518C99.9792 18.518 99.2092 19.772 99.2092 22.082C99.2092 24.37 100.023 25.624 101.563 25.624C102.575 25.624 103.279 25.052 103.521 23.952H106.887C106.381 26.922 104.247 28.352 101.497 28.352C97.9552 28.352 95.7552 25.954 95.7552 22.082C95.7552 18.056 97.9992 15.79 101.475 15.79C104.225 15.79 106.403 17.33 106.821 20.432Z" fill="#3C2B1F"/>
<path d="M108.593 28V12.16H111.959V17.726C112.729 16.406 113.939 15.79 115.391 15.79C117.657 15.79 119.351 17.176 119.351 20.102V28H115.985V20.784C115.985 19.288 115.391 18.518 114.159 18.518C112.817 18.518 111.959 19.684 111.959 21.202V28H108.593Z" fill="#3C2B1F"/>
<path d="M126.936 28.352C123.35 28.352 121.128 25.976 121.128 22.082C121.128 18.056 123.416 15.79 126.936 15.79C130.522 15.79 132.766 18.21 132.766 22.082C132.766 26.086 130.456 28.352 126.936 28.352ZM126.936 25.624C128.498 25.624 129.312 24.392 129.312 22.082C129.312 19.794 128.476 18.518 126.936 18.518C125.396 18.518 124.582 19.772 124.582 22.082C124.582 24.37 125.418 25.624 126.936 25.624Z" fill="#3C2B1F"/>
</svg>
